<?xml version="1.0" standalone="no"?>
<svg viewBox="0 0 200 200" xmlns="http://www.w3.org/2000/svg">
  <mask id="mask0" mask-type="alpha">
    <path fill="#D0E2FF" d="M38.7,-41.8C53.9,-33.4,72.5,-24.7,77.3,-11.5C82.1,1.6,73.1,19.3,62.9,35.8C52.7,52.2,41.4,67.5,25.2,76.7C8.9,85.9,-12.3,89.1,-28.5,81.7C-44.8,74.4,-55.9,56.6,-66.3,38.4C-76.6,20.2,-86.1,1.7,-83.5,-15.1C-81,-31.8,-66.4,-46.8,-50.5,-55.2C-34.6,-63.5,-17.3,-65.2,-2.8,-61.9C11.7,-58.6,23.5,-50.3,38.7,-41.8Z" transform="translate(100 100)" />
  </mask>
  <g mask="url(#mask0)">
    <path fill="#D0E2FF" d="M38.7,-41.8C53.9,-33.4,72.5,-24.7,77.3,-11.5C82.1,1.6,73.1,19.3,62.9,35.8C52.7,52.2,41.4,67.5,25.2,76.7C8.9,85.9,-12.3,89.1,-28.5,81.7C-44.8,74.4,-55.9,56.6,-66.3,38.4C-76.6,20.2,-86.1,1.7,-83.5,-15.1C-81,-31.8,-66.4,-46.8,-50.5,-55.2C-34.6,-63.5,-17.3,-65.2,-2.8,-61.9C11.7,-58.6,23.5,-50.3,38.7,-41.8Z" transform="translate(100 100)" />
    <image xlink:href="" />
  </g>

</svg>
